<svg width="29" height="29" viewBox="0 0 29 29" fill="none" xmlns="http://www.w3.org/2000/svg">
<circle cx="14.4508" cy="14.8015" r="13.6249" stroke="#F53838" stroke-width="0.939651"/>
<path d="M18.5618 14.2141H11.5967L13.7285 11.6535C13.8282 11.5336 13.8762 11.379 13.8618 11.2237C13.8475 11.0684 13.7721 10.9251 13.6522 10.8254C13.5322 10.7258 13.3776 10.6778 13.2223 10.6921C13.067 10.7064 12.9238 10.7819 12.8241 10.9018L9.88768 14.4255C9.86793 14.4535 9.85026 14.483 9.83483 14.5136C9.83483 14.5429 9.83483 14.5606 9.79372 14.5899C9.7671 14.6573 9.75316 14.7289 9.75261 14.8013C9.75316 14.8738 9.7671 14.9454 9.79372 15.0128C9.79372 15.0421 9.79372 15.0598 9.83483 15.0891C9.85026 15.1197 9.86793 15.1492 9.88768 15.1772L12.8241 18.7009C12.8793 18.7672 12.9485 18.8205 13.0266 18.857C13.1048 18.8936 13.19 18.9125 13.2763 18.9123C13.4135 18.9126 13.5465 18.8648 13.6522 18.7772C13.7116 18.7279 13.7608 18.6674 13.7968 18.5991C13.8328 18.5307 13.855 18.456 13.8621 18.3791C13.8692 18.3021 13.8611 18.2246 13.8381 18.1508C13.8152 18.077 13.778 18.0085 13.7285 17.9492L11.5967 15.3886H18.5618C18.7176 15.3886 18.867 15.3268 18.9771 15.2166C19.0872 15.1065 19.1491 14.9571 19.1491 14.8013C19.1491 14.6456 19.0872 14.4962 18.9771 14.3861C18.867 14.2759 18.7176 14.2141 18.5618 14.2141Z" fill="#F53838"/>
</svg>
