<svg width="12" height="12" viewBox="0 0 12 12" fill="none" xmlns="http://www.w3.org/2000/svg">
<path d="M9.55036 4.66744C9.55036 4.23555 9.4653 3.80789 9.30002 3.40888C9.13474 3.00987 8.89249 2.64731 8.5871 2.34192C8.28171 2.03653 7.91916 1.79428 7.52015 1.62901C7.12113 1.46373 6.69347 1.37866 6.26158 1.37866C5.8297 1.37866 5.40204 1.46373 5.00302 1.62901C4.60401 1.79428 4.24146 2.03653 3.93607 2.34192C3.63067 2.64731 3.38843 3.00987 3.22315 3.40888C3.05787 3.80789 2.97281 4.23555 2.97281 4.66744C2.97281 5.31909 3.16543 5.92517 3.49196 6.43634H3.4882C4.59699 8.17234 6.26158 10.7752 6.26158 10.7752L9.03497 6.43634H9.03168C9.37014 5.90843 9.55015 5.29454 9.55036 4.66744V4.66744ZM6.26158 6.07692C5.88777 6.07692 5.52926 5.92842 5.26493 5.66409C5.00061 5.39976 4.85211 5.04126 4.85211 4.66744C4.85211 4.29363 5.00061 3.93512 5.26493 3.67079C5.52926 3.40646 5.88777 3.25796 6.26158 3.25796C6.6354 3.25796 6.99391 3.40646 7.25824 3.67079C7.52256 3.93512 7.67106 4.29363 7.67106 4.66744C7.67106 5.04126 7.52256 5.39976 7.25824 5.66409C6.99391 5.92842 6.6354 6.07692 6.26158 6.07692Z" fill="#F53838"/>
</svg>
