<svg width="8" height="8" viewBox="0 0 8 8" fill="none" xmlns="http://www.w3.org/2000/svg">
<g clip-path="url(#clip0_1_118)">
<path d="M6.93615 2.9656L5.07226 2.69472L4.23906 1.00555C4.2163 0.959302 4.17886 0.921863 4.13261 0.899106C4.01662 0.841846 3.87567 0.889563 3.81768 1.00555L2.98447 2.69472L1.12059 2.9656C1.0692 2.97295 1.02222 2.99717 0.986246 3.03388C0.94276 3.07857 0.918796 3.13871 0.919622 3.20106C0.920448 3.26342 0.945996 3.3229 0.990651 3.36642L2.3392 4.6812L2.0206 6.53775C2.01313 6.58094 2.0179 6.62535 2.03439 6.66596C2.05088 6.70657 2.07842 6.74175 2.11388 6.7675C2.14934 6.79326 2.19131 6.80856 2.23503 6.81168C2.27875 6.8148 2.32246 6.8056 2.36122 6.78514L4.02837 5.90862L5.69551 6.78514C5.74103 6.80937 5.79388 6.81744 5.84454 6.80863C5.97227 6.78661 6.05816 6.66548 6.03614 6.53775L5.71754 4.6812L7.06608 3.36642C7.10279 3.33045 7.12701 3.28347 7.13436 3.23208C7.15418 3.10362 7.06462 2.98469 6.93615 2.9656V2.9656Z" fill="#FEA250"/>
</g>
<defs>
<clipPath id="clip0_1_118">
<rect width="7.51721" height="7.51721" fill="white" transform="translate(0.270287 0.373535)"/>
</clipPath>
</defs>
</svg>
