<svg width="27" height="26" viewBox="0 0 27 26" fill="none" xmlns="http://www.w3.org/2000/svg">
<rect x="0.265106" y="0.156738" width="25.8404" height="25.8404" rx="12.9202" fill="#FFECEC"/>
<path d="M16.944 8.84845H9.42677C9.17756 8.84845 8.93856 8.94745 8.76234 9.12367C8.58612 9.29989 8.48712 9.53889 8.48712 9.7881V11.6674C8.48712 11.9166 8.58612 12.1556 8.76234 12.3318C8.93856 12.5081 9.17756 12.6071 9.42677 12.6071H16.944C17.1932 12.6071 17.4322 12.5081 17.6084 12.3318C17.7846 12.1556 17.8836 11.9166 17.8836 11.6674V9.7881C17.8836 9.53889 17.7846 9.29989 17.6084 9.12367C17.4322 8.94745 17.1932 8.84845 16.944 8.84845ZM14.5949 10.7278C14.5949 10.9872 14.3845 11.1976 14.125 11.1976V11.1976C13.8656 11.1976 13.6552 10.9872 13.6552 10.7278V10.7278C13.6552 10.4683 13.8656 10.2579 14.125 10.2579V10.2579C14.3845 10.2579 14.5949 10.4683 14.5949 10.7278V10.7278ZM16.4742 10.7278C16.4742 10.9872 16.2638 11.1976 16.0043 11.1976V11.1976C15.7449 11.1976 15.5345 10.9872 15.5345 10.7278V10.7278C15.5345 10.4683 15.7449 10.2579 16.0043 10.2579V10.2579C16.2638 10.2579 16.4742 10.4683 16.4742 10.7278V10.7278ZM16.944 13.5467H9.42677C9.17756 13.5467 8.93856 13.6457 8.76234 13.8219C8.58612 13.9981 8.48712 14.2371 8.48712 14.4864V16.3657C8.48712 16.6149 8.58612 16.8539 8.76234 17.0301C8.93856 17.2063 9.17756 17.3053 9.42677 17.3053H16.944C17.1932 17.3053 17.4322 17.2063 17.6084 17.0301C17.7846 16.8539 17.8836 16.6149 17.8836 16.3657V14.4864C17.8836 14.2371 17.7846 13.9981 17.6084 13.8219C17.4322 13.6457 17.1932 13.5467 16.944 13.5467ZM14.5949 15.426C14.5949 15.6855 14.3845 15.8958 14.125 15.8958V15.8958C13.8656 15.8958 13.6552 15.6855 13.6552 15.426V15.426C13.6552 15.1665 13.8656 14.9562 14.125 14.9562V14.9562C14.3845 14.9562 14.5949 15.1665 14.5949 15.426V15.426ZM16.4742 15.426C16.4742 15.6855 16.2638 15.8958 16.0043 15.8958V15.8958C15.7449 15.8958 15.5345 15.6855 15.5345 15.426V15.426C15.5345 15.1665 15.7449 14.9562 16.0043 14.9562V14.9562C16.2638 14.9562 16.4742 15.1665 16.4742 15.426V15.426Z" fill="#F53838"/>
</svg>
