<svg width="70" height="71" viewBox="0 0 70 71" fill="none" xmlns="http://www.w3.org/2000/svg">
<g filter="url('#filter0_d_1_108')">
<circle cx="35.0369" cy="28.8015" r="14.0948" fill="#F53838"></circle>
<circle cx="35.0369" cy="28.8015" r="13.6249" stroke="#F53838" stroke-width="0.939651"></circle>
</g>
<path d="M30.9264 28.2141H37.8916L35.7598 25.6535C35.6601 25.5336 35.6121 25.379 35.6264 25.2237C35.6407 25.0684 35.7162 24.9251 35.8361 24.8254C35.956 24.7258 36.1107 24.6778 36.2659 24.6921C36.4212 24.7064 36.5645 24.7819 36.6642 24.9018L39.6006 28.4255C39.6203 28.4535 39.638 28.483 39.6534 28.5136C39.6534 28.5429 39.6534 28.5606 39.6945 28.5899C39.7212 28.6573 39.7351 28.7289 39.7357 28.8013C39.7351 28.8738 39.7212 28.9454 39.6945 29.0128C39.6945 29.0421 39.6945 29.0598 39.6534 29.0891C39.638 29.1197 39.6203 29.1492 39.6006 29.1772L36.6642 32.7009C36.609 32.7672 36.5398 32.8205 36.4616 32.857C36.3835 32.8936 36.2982 32.9125 36.212 32.9123C36.0747 32.9126 35.9418 32.8648 35.8361 32.7772C35.7766 32.7279 35.7275 32.6674 35.6914 32.5991C35.6554 32.5307 35.6332 32.456 35.6261 32.3791C35.619 32.3021 35.6272 32.2246 35.6501 32.1508C35.673 32.077 35.7103 32.0085 35.7598 31.9492L37.8916 29.3886H30.9264C30.7707 29.3886 30.6213 29.3268 30.5112 29.2166C30.401 29.1065 30.3391 28.9571 30.3391 28.8013C30.3391 28.6456 30.401 28.4962 30.5112 28.3861C30.6213 28.2759 30.7707 28.2141 30.9264 28.2141Z" fill="white"></path>
<defs>
<filter id="filter0_d_1_108" x="0.269838" y="0.611955" width="69.5342" height="69.5342" filterUnits="userSpaceOnUse" color-interpolation-filters="sRGB">
<feFlood flood-opacity="0" result="BackgroundImageFix"></feFlood>
<feColorMatrix in="SourceAlpha" type="matrix" values="0 0 0 0 0 0 0 0 0 0 0 0 0 0 0 0 0 0 127 0" result="hardAlpha"></feColorMatrix>
<feOffset dy="6.57756"></feOffset>
<feGaussianBlur stdDeviation="10.3362"></feGaussianBlur>
<feColorMatrix type="matrix" values="0 0 0 0 0.0561111 0 0 0 0 0.0777333 0 0 0 0 0.133333 0 0 0 0.08 0"></feColorMatrix>
<feBlend mode="normal" in2="BackgroundImageFix" result="effect1_dropShadow_1_108"></feBlend>
<feBlend mode="normal" in="SourceGraphic" in2="effect1_dropShadow_1_108" result="shape"></feBlend>
</filter>
</defs>
</svg>
