<svg width="12" height="12" viewBox="0 0 12 12" fill="none" xmlns="http://www.w3.org/2000/svg">
<path fill-rule="evenodd" clip-rule="evenodd" d="M6.20429 5.51312C6.65287 5.51312 7.08307 5.33492 7.40027 5.01772C7.71746 4.70053 7.89566 4.27032 7.89566 3.82174C7.89566 3.37316 7.71746 2.94296 7.40027 2.62576C7.08307 2.30857 6.65287 2.13037 6.20429 2.13037C5.75571 2.13037 5.3255 2.30857 5.00831 2.62576C4.69111 2.94296 4.51291 3.37316 4.51291 3.82174C4.51291 4.27032 4.69111 4.70053 5.00831 5.01772C5.3255 5.33492 5.75571 5.51312 6.20429 5.51312ZM3.80754 10.5872C2.95162 10.5872 2.23061 9.86773 2.55816 9.07696V9.07696C2.7565 8.59814 3.0472 8.16308 3.41366 7.79661C3.78013 7.43014 4.2152 7.13944 4.69401 6.94111C5.17283 6.74278 5.68602 6.6407 6.20429 6.6407C6.72255 6.6407 7.23575 6.74278 7.71456 6.94111C8.19338 7.13944 8.62844 7.43014 8.99491 7.79661C9.36138 8.16308 9.65208 8.59814 9.85041 9.07696V9.07696C10.178 9.86773 9.45696 10.5872 8.60103 10.5872H3.80754Z" fill="#F53838"></path>
</svg>
