<svg width="12" height="12" viewBox="0 0 12 12" fill="none" xmlns="http://www.w3.org/2000/svg">
<path d="M5.07151 8.2019C5.00984 8.20203 4.94875 8.18997 4.89175 8.16643C4.83474 8.14289 4.78295 8.10832 4.73934 8.06471L2.74634 6.07124C2.70144 6.02793 2.66561 5.97612 2.64095 5.91881C2.61629 5.86151 2.60328 5.79987 2.6027 5.73749C2.60211 5.67511 2.61396 5.61323 2.63754 5.55548C2.66112 5.49772 2.69597 5.44524 2.74005 5.40109C2.78413 5.35695 2.83656 5.32203 2.89429 5.29836C2.95201 5.2747 3.01387 5.26277 3.07625 5.26327C3.13863 5.26376 3.20029 5.27668 3.25763 5.30126C3.31497 5.32584 3.36683 5.3616 3.41021 5.40644L5.07104 7.06727L8.06148 4.07777C8.14958 3.98961 8.26909 3.94006 8.39372 3.94002C8.51835 3.93997 8.63789 3.98944 8.72605 4.07754C8.81421 4.16563 8.86376 4.28514 8.8638 4.40977C8.86385 4.5344 8.81438 4.65395 8.72628 4.74211L5.40368 8.06471C5.36007 8.10832 5.30828 8.14289 5.25127 8.16643C5.19427 8.18997 5.13318 8.20203 5.07151 8.2019V8.2019Z" fill="#2FAB73"></path>
</svg>
