<svg width="33" height="34" viewBox="0 0 33 34" fill="none" xmlns="http://www.w3.org/2000/svg">
<g filter="url('#filter0_d_1_129')">
<circle cx="16.6056" cy="11.0844" r="7.89304" fill="#F53838"></circle>
</g>
<path d="M16.6055 3.19141C12.2462 3.19141 8.7124 6.7252 8.7124 11.0845C8.7124 15.4438 12.2462 18.9776 16.6055 18.9776C20.9648 18.9776 24.4985 15.4438 24.4985 11.0845C24.4985 6.7252 20.9648 3.19141 16.6055 3.19141ZM19.8161 9.65715C19.8194 9.72457 19.8203 9.79199 19.8203 9.85776C19.8203 11.9133 18.2573 14.282 15.3977 14.282C14.5527 14.2834 13.7253 14.0407 13.0149 13.5831C13.1358 13.5979 13.26 13.6037 13.3858 13.6037C14.1142 13.6037 14.7843 13.3562 15.3163 12.9385C14.9921 12.9322 14.678 12.8248 14.4177 12.6315C14.1574 12.4381 13.964 12.1683 13.8643 11.8598C14.0971 11.9041 14.3369 11.8948 14.5656 11.8327C14.2137 11.7615 13.8973 11.5709 13.67 11.293C13.4427 11.0152 13.3184 10.6673 13.3183 10.3083V10.2894C13.528 10.4053 13.7681 10.4761 14.023 10.4843C13.6931 10.2647 13.4596 9.92738 13.3702 9.54133C13.2808 9.15528 13.3422 8.74965 13.542 8.40741C13.9325 8.88757 14.4195 9.28037 14.9714 9.56038C15.5234 9.84039 16.128 10.0014 16.7461 10.0329C16.6675 9.69933 16.7013 9.34916 16.8423 9.03681C16.9832 8.72445 17.2235 8.46742 17.5256 8.30568C17.8277 8.14393 18.1748 8.08653 18.5129 8.14239C18.851 8.19826 19.1612 8.36427 19.3952 8.6146C19.7431 8.54577 20.0768 8.41814 20.3818 8.23722C20.2659 8.59745 20.0231 8.90334 19.6986 9.09806C20.0068 9.06093 20.3077 8.97808 20.5915 8.85222C20.383 9.16457 20.1205 9.43716 19.8161 9.65715V9.65715Z" fill="white"></path>
<defs>
<filter id="filter0_d_1_129" x="0.255648" y="0.842278" width="32.6998" height="32.6999" filterUnits="userSpaceOnUse" color-interpolation-filters="sRGB">
<feFlood flood-opacity="0" result="BackgroundImageFix"></feFlood>
<feColorMatrix in="SourceAlpha" type="matrix" values="0 0 0 0 0 0 0 0 0 0 0 0 0 0 0 0 0 0 127 0" result="hardAlpha"></feColorMatrix>
<feOffset dy="6.10773"></feOffset>
<feGaussianBlur stdDeviation="4.22843"></feGaussianBlur>
<feColorMatrix type="matrix" values="0 0 0 0 0.0658854 0 0 0 0 0.0730469 0 0 0 0 0.1375 0 0 0 0.08 0"></feColorMatrix>
<feBlend mode="normal" in2="BackgroundImageFix" result="effect1_dropShadow_1_129"></feBlend>
<feBlend mode="normal" in="SourceGraphic" in2="effect1_dropShadow_1_129" result="shape"></feBlend>
</filter>
</defs>
</svg>
