<svg width="34" height="34" viewBox="0 0 34 34" fill="none" xmlns="http://www.w3.org/2000/svg">
<g filter="url('#filter0_d_1_132')">
<circle cx="16.7883" cy="11.0844" r="7.89304" fill="#F53838"></circle>
</g>
<path d="M19.2548 11.0845C19.2548 11.7387 18.9949 12.366 18.5323 12.8286C18.0697 13.2912 17.4424 13.5511 16.7882 13.5511C16.134 13.5511 15.5066 13.2912 15.044 12.8286C14.5815 12.366 14.3216 11.7387 14.3216 11.0845C14.3216 10.9439 14.3364 10.8066 14.3619 10.6734H13.4994V13.9597C13.4994 14.1883 13.6844 14.3733 13.913 14.3733H19.6642C19.7738 14.373 19.8787 14.3294 19.9561 14.2518C20.0335 14.1743 20.077 14.0692 20.077 13.9597V10.6734H19.2145C19.24 10.8066 19.2548 10.9439 19.2548 11.0845V11.0845ZM16.7882 12.7289C17.0042 12.7288 17.2181 12.6862 17.4176 12.6035C17.6171 12.5208 17.7984 12.3996 17.9511 12.2468C18.1038 12.0941 18.2249 11.9127 18.3075 11.7131C18.3901 11.5135 18.4326 11.2997 18.4326 11.0837C18.4325 10.8677 18.3899 10.6538 18.3072 10.4542C18.2245 10.2547 18.1033 10.0734 17.9505 9.92073C17.7978 9.76803 17.6164 9.64692 17.4168 9.56431C17.2173 9.4817 17.0034 9.43921 16.7874 9.43927C16.3511 9.43938 15.9328 9.61277 15.6244 9.92131C15.316 10.2298 15.1429 10.6483 15.143 11.0845C15.1431 11.5207 15.3165 11.939 15.625 12.2474C15.9336 12.5558 16.352 12.729 16.7882 12.7289V12.7289ZM18.7615 9.35787H19.7473C19.8128 9.35787 19.8756 9.33191 19.922 9.28567C19.9684 9.23944 19.9945 9.1767 19.9947 9.11121V8.1254C19.9947 8.05976 19.9687 7.99682 19.9223 7.9504C19.8758 7.90399 19.8129 7.87792 19.7473 7.87792H18.7615C18.6958 7.87792 18.6329 7.90399 18.5865 7.9504C18.54 7.99682 18.514 8.05976 18.514 8.1254V9.11121C18.5148 9.24687 18.6258 9.35787 18.7615 9.35787V9.35787ZM16.7882 3.19141C14.6948 3.19141 12.6872 4.023 11.2069 5.50323C9.7267 6.98347 8.89511 8.99111 8.89511 11.0845C8.89511 13.1779 9.7267 15.1855 11.2069 16.6657C12.6872 18.146 14.6948 18.9776 16.7882 18.9776C17.8247 18.9776 18.8511 18.7734 19.8087 18.3767C20.7664 17.9801 21.6365 17.3987 22.3694 16.6657C23.1024 15.9328 23.6838 15.0627 24.0804 14.105C24.4771 13.1474 24.6813 12.121 24.6813 11.0845C24.6813 10.0479 24.4771 9.02156 24.0804 8.06393C23.6838 7.1063 23.1024 6.23617 22.3694 5.50323C21.6365 4.77029 20.7664 4.18889 19.8087 3.79223C18.8511 3.39557 17.8247 3.19141 16.7882 3.19141V3.19141ZM20.8992 14.282C20.8992 14.7844 20.4881 15.1955 19.9857 15.1955H13.5907C13.0883 15.1955 12.6772 14.7844 12.6772 14.282V7.88696C12.6772 7.3846 13.0883 6.9735 13.5907 6.9735H19.9857C20.4881 6.9735 20.8992 7.3846 20.8992 7.88696V14.282V14.282Z" fill="white"></path>
<defs>
<filter id="filter0_d_1_132" x="0.438356" y="0.842278" width="32.6998" height="32.6999" filterUnits="userSpaceOnUse" color-interpolation-filters="sRGB">
<feFlood flood-opacity="0" result="BackgroundImageFix"></feFlood>
<feColorMatrix in="SourceAlpha" type="matrix" values="0 0 0 0 0 0 0 0 0 0 0 0 0 0 0 0 0 0 127 0" result="hardAlpha"></feColorMatrix>
<feOffset dy="6.10773"></feOffset>
<feGaussianBlur stdDeviation="4.22843"></feGaussianBlur>
<feColorMatrix type="matrix" values="0 0 0 0 0.0658854 0 0 0 0 0.0730469 0 0 0 0 0.1375 0 0 0 0.08 0"></feColorMatrix>
<feBlend mode="normal" in2="BackgroundImageFix" result="effect1_dropShadow_1_132"></feBlend>
<feBlend mode="normal" in="SourceGraphic" in2="effect1_dropShadow_1_132" result="shape"></feBlend>
</filter>
</defs>
</svg>
